<svg xmlns="http://www.w3.org/2000/svg" width="49.998" height="42.104" viewBox="0 0 19 16">
  <metadata><?xpacket begin="﻿" id="W5M0MpCehiHzreSzNTczkc9d"?>
<x:xmpmeta xmlns:x="adobe:ns:meta/" x:xmptk="Adobe XMP Core 5.6-c138 79.159824, 2016/09/14-01:09:01        ">
   <rdf:RDF xmlns:rdf="http://www.w3.org/1999/02/22-rdf-syntax-ns#">
      <rdf:Description rdf:about=""/>
   </rdf:RDF>
</x:xmpmeta>
                                                                                                    
                                                                                                    
                                                                                                    
                                                                                                    
                                                                                                    
                                                                                                    
                                                                                                    
                                                                                                    
                                                                                                    
                                                                                                    
                                                                                                    
                                                                                                    
                                                                                                    
                                                                                                    
                                                                                                    
                                                                                                    
                                                                                                    
                                                                                                    
                                                                                                    
                                                                                                    
                           
<?xpacket end="w"?></metadata>
<defs>
    <style>
      .cls-1 {
        fill: #fff;
        fill-rule: evenodd;
      }
    </style>
  </defs>
  <path id="Forma_1" data-name="Forma 1" class="cls-1" d="M600.432,134.81v-0.433a0.932,0.932,0,1,0-1.864,0v0.433A0.932,0.932,0,1,0,600.432,134.81Zm0.639,0.529a1.627,1.627,0,0,1-3.142,0h-6.418a2.563,2.563,0,0,1-1.131-.264v4.374A1.537,1.537,0,0,0,591.893,141h15.214a1.538,1.538,0,0,0,1.513-1.553v-4.374a2.567,2.567,0,0,1-1.131.265h-6.418Zm6.354-7.854h-3.631a2.9,2.9,0,0,0-2.84-2.487h-2.909a2.905,2.905,0,0,0-2.84,2.487h-3.631A1.569,1.569,0,0,0,590,129.038v3.584a1.533,1.533,0,0,0,1.513,1.553h6.346a1.707,1.707,0,0,1,.5-1.138c0.009-.009.02-0.016,0.029-0.025a1.678,1.678,0,0,1,.208-0.17c0.027-.018.057-0.031,0.085-0.047a1.621,1.621,0,0,1,.188-0.1c0.052-.022.108-0.035,0.162-0.052s0.092-.033.14-0.043a1.605,1.605,0,0,1,.327-0.034,1.588,1.588,0,0,1,.326.034c0.049,0.01.093,0.029,0.14,0.043a1.614,1.614,0,0,1,.162.052,1.708,1.708,0,0,1,.188.1c0.028,0.016.058,0.029,0.085,0.047a1.6,1.6,0,0,1,.207.17c0.01,0.009.021,0.016,0.03,0.025a1.707,1.707,0,0,1,.5,1.139h6.346A1.533,1.533,0,0,0,609,132.623v-3.584A1.569,1.569,0,0,0,607.425,127.485Zm-10.763,0a1.464,1.464,0,0,1,1.383-1.034h2.909a1.466,1.466,0,0,1,1.384,1.034h-5.676Z" transform="translate(-590 -125)"/>
</svg>
