<?xml version="1.0" encoding="utf-8"?><svg xmlns="http://www.w3.org/2000/svg" xmlns:xlink="http://www.w3.org/1999/xlink"><symbol viewBox="0 0 19 16" id="portfolio"><defs><style>.cls-1{fill:#fff;fill-rule:evenodd}</style></defs><path id="aForma_1" data-name="Forma 1" class="acls-1" d="M600.432 134.81v-.433a.932.932 0 1 0-1.864 0v.433a.932.932 0 1 0 1.864 0zm.639.529a1.627 1.627 0 0 1-3.142 0h-6.418a2.563 2.563 0 0 1-1.131-.264v4.374a1.537 1.537 0 0 0 1.513 1.551h15.214a1.538 1.538 0 0 0 1.513-1.553v-4.374a2.567 2.567 0 0 1-1.131.265h-6.418zm6.354-7.854h-3.631a2.9 2.9 0 0 0-2.84-2.487h-2.909a2.905 2.905 0 0 0-2.84 2.487h-3.631a1.569 1.569 0 0 0-1.574 1.553v3.584a1.533 1.533 0 0 0 1.513 1.553h6.346a1.707 1.707 0 0 1 .5-1.138l.029-.025a1.678 1.678 0 0 1 .208-.17c.027-.018.057-.031.085-.047a1.621 1.621 0 0 1 .188-.1c.052-.022.108-.035.162-.052s.092-.033.14-.043a1.605 1.605 0 0 1 .327-.034 1.588 1.588 0 0 1 .326.034c.049.01.093.029.14.043a1.614 1.614 0 0 1 .162.052 1.708 1.708 0 0 1 .188.1c.028.016.058.029.085.047a1.6 1.6 0 0 1 .207.17c.01.009.021.016.03.025a1.707 1.707 0 0 1 .5 1.139h6.346a1.533 1.533 0 0 0 1.518-1.553v-3.584a1.569 1.569 0 0 0-1.575-1.554zm-10.763 0a1.464 1.464 0 0 1 1.383-1.034h2.909a1.466 1.466 0 0 1 1.384 1.034h-5.676z" transform="translate(-590 -125)"/></symbol></svg>